REM DIRINDEX 1\2\5,1\2\6,1\2\7,1\2\8,1\3\9,1\3\10,1\3\11,1\4\12,1\4\13,1\4\14,1\4\15,1\4\16
REM DIRNAME cjc034,folder01,folder02,folder03,folder04,folder05,folder06,folder07,folder08,folder09,folder10,folder11,folder12,folder13,folder14,folder15
TITLE ""
FILE "1200_sec05_1514_1521.mp3" MP3
  TRACK 01 AUDIO
    TITLE "0:"
    INDEX 01 00:00:00
  TRACK 02 AUDIO
    TITLE "16:cjc034_09800"
    INDEX 01 00:00:17
  TRACK 03 AUDIO
    TITLE "0:"
    INDEX 01 00:02:06
  TRACK 04 AUDIO
    TITLE "12:cjc034_09801"
    INDEX 01 00:03:08
  TRACK 05 AUDIO
    TITLE "0:"
    INDEX 01 00:04:21
  TRACK 06 AUDIO
    TITLE "13:cjc034_09802"
    INDEX 01 00:04:56
  TRACK 07 AUDIO
    TITLE "0:"
    INDEX 01 00:05:57
  TRACK 08 AUDIO
    TITLE "14:cjc034_09803"
    INDEX 01 00:06:16
  TRACK 09 AUDIO
    TITLE "0:"
    INDEX 01 00:07:31
  TRACK 10 AUDIO
    TITLE "15:cjc034_09804"
    INDEX 01 00:07:64
  TRACK 11 AUDIO
    TITLE "0:"
    INDEX 01 00:11:72
  TRACK 12 AUDIO
    TITLE "12:cjc034_09805"
    INDEX 01 00:13:30
  TRACK 13 AUDIO
    TITLE "0:"
    INDEX 01 00:14:51
  TRACK 14 AUDIO
    TITLE "13:cjc034_09806"
    INDEX 01 00:15:07
  TRACK 15 AUDIO
    TITLE "0:"
    INDEX 01 00:16:18
  TRACK 16 AUDIO
    TITLE "14:cjc034_09807"
    INDEX 01 00:16:49
  TRACK 17 AUDIO
    TITLE "0:"
    INDEX 01 00:17:72
  TRACK 18 AUDIO
    TITLE "15:cjc034_09808"
    INDEX 01 00:18:29
  TRACK 19 AUDIO
    TITLE "0:"
    INDEX 01 00:22:21
  TRACK 20 AUDIO
    TITLE "12:cjc034_09809"
    INDEX 01 00:23:53
  TRACK 21 AUDIO
    TITLE "0:"
    INDEX 01 00:25:07
  TRACK 22 AUDIO
    TITLE "13:cjc034_09810"
    INDEX 01 00:25:39
  TRACK 23 AUDIO
    TITLE "0:"
    INDEX 01 00:27:45
  TRACK 24 AUDIO
    TITLE "14:cjc034_09811"
    INDEX 01 00:28:06
  TRACK 25 AUDIO
    TITLE "0:"
    INDEX 01 00:29:33
  TRACK 26 AUDIO
    TITLE "15:cjc034_09812"
    INDEX 01 00:29:64
  TRACK 27 AUDIO
    TITLE "0:"
    INDEX 01 00:34:42
  TRACK 28 AUDIO
    TITLE "12:cjc034_09813"
    INDEX 01 00:35:74
  TRACK 29 AUDIO
    TITLE "0:"
    INDEX 01 00:37:18
  TRACK 30 AUDIO
    TITLE "13:cjc034_09814"
    INDEX 01 00:37:56
  TRACK 31 AUDIO
    TITLE "0:"
    INDEX 01 00:39:07
  TRACK 32 AUDIO
    TITLE "14:cjc034_09815"
    INDEX 01 00:39:43
  TRACK 33 AUDIO
    TITLE "0:"
    INDEX 01 00:40:66
  TRACK 34 AUDIO
    TITLE "15:cjc034_09816"
    INDEX 01 00:41:24
  TRACK 35 AUDIO
    TITLE "0:"
    INDEX 01 00:47:19
  TRACK 36 AUDIO
    TITLE "12:cjc034_09817"
    INDEX 01 00:48:51
  TRACK 37 AUDIO
    TITLE "0:"
    INDEX 01 00:49:72
  TRACK 38 AUDIO
    TITLE "13:cjc034_09818"
    INDEX 01 00:50:29
  TRACK 39 AUDIO
    TITLE "0:"
    INDEX 01 00:54:38
  TRACK 40 AUDIO
    TITLE "14:cjc034_09819"
    INDEX 01 00:54:72
  TRACK 41 AUDIO
    TITLE "0:"
    INDEX 01 00:56:18
  TRACK 42 AUDIO
    TITLE "15:cjc034_09820"
    INDEX 01 00:56:49
  TRACK 43 AUDIO
    TITLE "0:"
    INDEX 01 01:02:54
  TRACK 44 AUDIO
    TITLE "12:cjc034_09821"
    INDEX 01 01:04:11
  TRACK 45 AUDIO
    TITLE "0:"
    INDEX 01 01:05:30
  TRACK 46 AUDIO
    TITLE "13:cjc034_09822"
    INDEX 01 01:05:62
  TRACK 47 AUDIO
    TITLE "0:"
    INDEX 01 01:08:03
  TRACK 48 AUDIO
    TITLE "14:cjc034_09823"
    INDEX 01 01:08:35
  TRACK 49 AUDIO
    TITLE "0:"
    INDEX 01 01:09:54
  TRACK 50 AUDIO
    TITLE "15:cjc034_09824"
    INDEX 01 01:10:14
  TRACK 51 AUDIO
    TITLE "0:"
    INDEX 01 01:13:22
  TRACK 52 AUDIO
    TITLE "12:cjc034_09825"
    INDEX 01 01:14:53
  TRACK 53 AUDIO
    TITLE "0:"
    INDEX 01 01:15:72
  TRACK 54 AUDIO
    TITLE "13:cjc034_09826"
    INDEX 01 01:16:30
  TRACK 55 AUDIO
    TITLE "0:"
    INDEX 01 01:18:45
  TRACK 56 AUDIO
    TITLE "14:cjc034_09827"
    INDEX 01 01:19:03
  TRACK 57 AUDIO
    TITLE "0:"
    INDEX 01 01:20:24
  TRACK 58 AUDIO
    TITLE "15:cjc034_09828"
    INDEX 01 01:20:55
  TRACK 59 AUDIO
    TITLE "0:"
    INDEX 01 01:25:60
  TRACK 60 AUDIO
    TITLE "12:cjc034_09829"
    INDEX 01 01:27:16
  TRACK 61 AUDIO
    TITLE "0:"
    INDEX 01 01:28:51
  TRACK 62 AUDIO
    TITLE "13:cjc034_09830"
    INDEX 01 01:29:07
  TRACK 63 AUDIO
    TITLE "0:"
    INDEX 01 01:31:63
  TRACK 64 AUDIO
    TITLE "14:cjc034_09831"
    INDEX 01 01:32:21
  TRACK 65 AUDIO
    TITLE "0:"
    INDEX 01 01:33:58
  TRACK 66 AUDIO
    TITLE "15:cjc034_09832"
    INDEX 01 01:34:14
  TRACK 67 AUDIO
    TITLE "0:"
    INDEX 01 01:41:57
